<svg class="lds-polar" width="100%" height="100%" xmlns="http://www.w3.org/2000/svg" xmlns:xlink="http://www.w3.org/1999/xlink" viewBox="0 0 100 100" preserveAspectRatio="xMidYMid"><g transform="translate(50 50)"><g transform="scale(0.701722 0.701722)">
<path d="M0 0L0 -40A40 40 0 0 1 34.64101615137754 -20.000000000000004" transform="rotate(0 0 0)" stroke="none" fill="#fcb711"></path>
<animateTransform attributeName="transform" type="scale" values="0.43814176936299964;0.8608945104417569;0.7739241887002214;0.05492628782943083;0.7866622320428236;0.43814176936299964" keyTimes="0;0.2;0.4;0.6;0.8;1" dur="1s" repeatCount="indefinite"></animateTransform>
</g><g transform="scale(0.37931 0.37931)">
<path d="M0 0L0 -40A40 40 0 0 1 34.64101615137754 -20.000000000000004" transform="rotate(60 0 0)" stroke="none" fill="#f37021"></path>
<animateTransform attributeName="transform" type="scale" values="0.40584405831905074;0.299449555405698;0.40584405831905074" keyTimes="0;0.5;1" dur="1s" repeatCount="indefinite"></animateTransform>
</g><g transform="scale(0.374161 0.374161)">
<path d="M0 0L0 -40A40 40 0 0 1 34.64101615137754 -20.000000000000004" transform="rotate(120 0 0)" stroke="none" fill="#cc004c"></path>
<animateTransform attributeName="transform" type="scale" values="0.6678585036095175;0.0790366890997743;0.7503938194167129;0.5787282218724584;0.6678585036095175" keyTimes="0;0.25;0.5;0.75;1" dur="1s" repeatCount="indefinite"></animateTransform>
</g><g transform="scale(0.571935 0.571935)">
<path d="M0 0L0 -40A40 40 0 0 1 34.64101615137754 -20.000000000000004" transform="rotate(180 0 0)" stroke="none" fill="#6460aa"></path>
<animateTransform attributeName="transform" type="scale" values="0.7681356393522356;0.37478019242589805;0.1261990326320694;0.055875499163311394;0.7681356393522356" keyTimes="0;0.25;0.5;0.75;1" dur="1s" repeatCount="indefinite"></animateTransform>
</g><g transform="scale(0.430466 0.430466)">
<path d="M0 0L0 -40A40 40 0 0 1 34.64101615137754 -20.000000000000004" transform="rotate(240 0 0)" stroke="none" fill="#fcb711"></path>
<animateTransform attributeName="transform" type="scale" values="0.1085834493833712;0.7539127960178625;0.8519885736106435;0.19711996837370027;0.1085834493833712" keyTimes="0;0.25;0.5;0.75;1" dur="1s" repeatCount="indefinite"></animateTransform>
</g><g transform="scale(0.719179 0.719179)">
<path d="M0 0L0 -40A40 40 0 0 1 34.64101615137754 -20.000000000000004" transform="rotate(300 0 0)" stroke="none" fill="#f37021"></path>
<animateTransform attributeName="transform" type="scale" values="0.5914318133108698;0.7963237653868329;0.5317085284309451;0.8472062188562012;0.20844416374435942;0.5914318133108698" keyTimes="0;0.2;0.4;0.6;0.8;1" dur="1s" repeatCount="indefinite"></animateTransform>
</g></g></svg>